# xmcd
#
# Track frame offsets:
#	150
#	15611
#	31822
#	47035
#	64255
#	82291
#	98879
#	115122
#	130250
#	147907
#	162944
#	181139
#	195078
#	208198
#	225351
#	243096
#	259195
#	276416
#	294052
#	305503
#	321937
#
# Disc length: 4534 seconds
#
# Revision: 1
# Processed by: cddbd v1.5.1PL2 Copyright (c) Steve Scherf et al.
# Submitted via: audiograbber 1.83.01
#
DISCID=2311b415
DTITLE=Various Artist - ERG NCT 141
DYEAR=2006
DGENRE=Country
TTITLE0=Big and Rich - Never Mind Me
TTITLE1=Faith Hill - Lucky One, The
TTITLE2=Gretchen Wilson ft. Merle Haggard - Politically Uncorrect
TTITLE3=Eric Church - How 'Bout You
TTITLE4=Terri Clark - Damn Right
TTITLE5=Trent Willmon - On Again Tonight
TTITLE6=Steve Holy - Brand New Girlfriend
TTITLE7=Shooter Jennings - Aviators
TTITLE8=Phil Vassar - Last Day Of My Life
TTITLE9=Ty England - Redneck Anthem
TTITLE10=Little Big Town - Bring It On Home
TTITLE11=BR549 - After The Hurricane
TTITLE12=Corb Lund - Hair In My Eyes Like A Highland Steer
TTITLE13=Mark McGuinn - One Man's Crazy
TTITLE14=John Corbett - Good To Go
TTITLE15=Jack Ingram - Wherever You Are
TTITLE16=Road Hammers - Nashville Bound
TTITLE17=Hot Apple Pie - Easy Does It
TTITLE18=JR Vautour - New Me, The
TTITLE19=Doug Stone - Time
TTITLE20=Hal Ketchum - Just This Side Of Heaven (Hal-Lelujah)
EXTD=
EXTT0=
EXTT1=
EXTT2=
EXTT3=
EXTT4=
EXTT5=
EXTT6=
EXTT7=
EXTT8=
EXTT9=
EXTT10=
EXTT11=
EXTT12=
EXTT13=
EXTT14=
EXTT15=
EXTT16=
EXTT17=
EXTT18=
EXTT19=
EXTT20=
PLAYORDER=
